#!OML:ASF H:\Martial Arts Walks\Project 1\Capture day 1\Session 1\male.ASF
:FULLY-SPECIFIED
:DEGREES
246
root -0.874872 11.4618 11.2642 9.64048 1.86022 -1.9917
lowerback 19.3802 1.64826 -2.19219
upperback -3.50732 1.82501 1.11579
thorax -15.0887 1.09147 1.93814
lowerneck -9.18669 -3.03695 -5.41415
upperneck 7.3104 -3.84035 5.08485
head 3.8829 -1.79101 2.19768
rclavicle 2.79541e-016 6.23687e-015
rhumerus 39.9161 -2.90379 -62.746
rradius 94.0006
rwrist 20.6374
rhand 1.41396 -13.9771
rfingers 7.12502
rthumb 26.944 -42.0762
lclavicle 2.79541e-016 6.23687e-015
lhumerus 42.4497 -4.95069 86.1719
lradius 87.545
lwrist -35.5448
lhand -10.9997 1.99032
lfingers 7.12502
lthumb 15.0208 31.4255
rfemur -74.14 -5.31001 21.884
rtibia 108.402
rfoot -33.149 -17.9587
rtoes -13.3299
lfemur -75.0381 11.5971 -17.8452
ltibia 107.553
lfoot -31.3119 16.2415
ltoes -13.2111
247
root -0.875126 11.4624 11.2646 9.65497 1.86433 -2.00166
lowerback 19.3825 1.64608 -2.19244
upperback -3.51177 1.82248 1.11901
thorax -15.0954 1.09066 1.94272
lowerneck -9.17269 -3.03883 -5.41916
upperneck 7.30267 -3.8432 5.09077
head 3.87861 -1.79247 2.20031
rclavicle -1.85367e-014 -5.51627e-015
rhumerus 39.9051 -2.89256 -62.7312
rradius 94.0166
rwrist 20.6175
rhand 1.44874 -13.9933
rfingers 7.12502
rthumb 26.9773 -42.0872
lclavicle -1.85367e-014 -5.51627e-015
lhumerus 42.4355 -4.95188 86.1644
lradius 87.5394
lwrist -35.5527
lhand -11.0101 1.98638
lfingers 7.12502
lthumb 15.0107 31.4223
rfemur -74.152 -5.31085 21.8984
rtibia 108.394
rfoot -33.1444 -17.9541
rtoes -13.314
lfemur -75.0552 11.6048 -17.8377
ltibia 107.55
lfoot -31.3106 16.2327
ltoes -13.224
248
root -0.875404 11.463 11.2652 9.66931 1.86676 -2.00816
lowerback 19.3842 1.64547 -2.19698
upperback -3.51524 1.8208 1.12097
thorax -15.1007 1.09052 1.94804
lowerneck -9.16173 -3.04121 -5.42078
upperneck 7.29582 -3.84659 5.09184
head 3.87496 -1.79431 2.20084
rclavicle -9.00743e-016 4.37326e-015
rhumerus 39.8998 -2.88469 -62.715
rradius 94.0286
rwrist 20.6043
rhand 1.46838 -14.0069
rfingers 7.12502
rthumb 26.9961 -42.0979
lclavicle -9.00743e-016 4.37326e-015
lhumerus 42.4241 -4.9529 86.1586
lradius 87.5352
lwrist -35.5621
lhand -11.0162 1.98423
lfingers 7.12502
lthumb 15.0049 31.4206
rfemur -74.1641 -5.31193 21.9093
rtibia 108.386
rfoot -33.1386 -17.9501
rtoes -13.2989
lfemur -75.0684 11.614 -17.834
ltibia 107.545
lfoot -31.3084 16.2261
ltoes -13.2325
249
root -0.875686 11.4639 11.2658 9.68362 1.86868 -2.01029
lowerback 19.3866 1.64663 -2.20577
upperback -3.51778 1.82013 1.12107
thorax -15.1056 1.09108 1.95333
lowerneck -9.15661 -3.04419 -5.41855
upperneck 7.29119 -3.85072 5.08904
head 3.87283 -1.7965 2.19942
rclavicle 2.42269e-015 -4.4975e-015
rhumerus 39.8999 -2.88173 -62.6998
rradius 94.034
rwrist 20.6045
rhand 1.47214 -14.0126
rfingers 7.12502
rthumb 26.9997 -42.103
lclavicle 2.42269e-015 -4.4975e-015
lhumerus 42.4163 -4.9564 86.1561
lradius 87.5314
lwrist -35.5714
lhand -11.0245 1.98233
lfingers 7.12502
lthumb 14.9969 31.4193
rfemur -74.1755 -5.31421 21.9147
rtibia 108.379
rfoot -33.138 -17.938
rtoes -13.2715
lfemur -75.0781 11.6226 -17.8348
ltibia 107.537
lfoot -31.3075 16.2173
ltoes -13.2269
250
root -0.876008 11.4648 11.2666 9.69558 1.87242 -2.01009
lowerback 19.3917 1.64864 -2.21611
upperback -3.51875 1.82002 1.12018
thorax -15.1101 1.09194 1.95818
lowerneck -9.15341 -3.04695 -5.41574
upperneck 7.28431 -3.85453 5.08704
head 3.87032 -1.79847 2.19816
rclavicle -1.20513e-015 8.67198e-015
rhumerus 39.9046 -2.88343 -62.6859
rradius 94.0321
rwrist 20.6139
rhand 1.46202 -14.0085
rfingers 7.12502
rthumb 26.99 -42.1004
lclavicle -1.20513e-015 8.67198e-015
lhumerus 42.4135 -4.96261 86.1558
lradius 87.5304
lwrist -35.5755
lhand -11.0243 1.97868
lfingers 7.12502
lthumb 14.9971 31.4156
rfemur -74.1821 -5.31927 21.9178
rtibia 108.372
rfoot -33.1405 -17.9289
rtoes -13.2608
lfemur -75.0829 11.6291 -17.8368
ltibia 107.528
lfoot -31.3103 16.2041
ltoes -13.2071
251
root -0.876336 11.4658 11.2674 9.70614 1.87688 -2.00823
lowerback 19.3968 1.65088 -2.22776
upperback -3.51905 1.81985 1.11915
thorax -15.114 1.09287 1.96363
lowerneck -9.12879 -3.05387 -5.40079
upperneck 7.25222 -3.86406 5.06766
head 3.85634 -1.80414 2.18957
rclavicle 7.24943e-015 -5.1684e-015
rhumerus 39.9112 -2.88632 -62.676
rradius 94.0265
rwrist 20.6244
rhand 1.44145 -13.9981
rfingers 7.12502
rthumb 26.9703 -42.0931
lclavicle 7.24943e-015 -5.1684e-015
lhumerus 42.4145 -4.96923 86.1576
lradius 87.5299
lwrist -35.5783
lhand -11.0283 1.96981
lfingers 7.12502
lthumb 14.9932 31.407
rfemur -74.1843 -5.32524 21.9188
rtibia 108.366
rfoot -33.1466 -17.9222
rtoes -13.2499
lfemur -75.0833 11.6353 -17.8405
ltibia 107.518
lfoot -31.3146 16.1929
ltoes -13.1892
252
root -0.8767 11.4667 11.2684 9.71565 1.88235 -2.00724
lowerback 19.4028 1.65399 -2.23729
upperback -3.51697 1.82132 1.11792
thorax -15.1156 1.09429 1.96711
lowerneck -9.11636 -3.06039 -5.38699
upperneck 7.22508 -3.87272 5.05076
head 3.8459 -1.80911 2.18183
rclavicle -3.90115e-015 -1.91827e-014
rhumerus 39.9242 -2.8959 -62.6702
rradius 94.017
rwrist 20.6358
rhand 1.42029 -13.9851
rfingers 7.12502
rthumb 26.95 -42.0832
lclavicle -3.90115e-015 -1.91827e-014
lhumerus 42.4244 -4.98003 86.1615
lradius 87.5314
lwrist -35.5752
lhand -11.026 1.96492
lfingers 7.12502
lthumb 14.9955 31.402
rfemur -74.1838 -5.33062 21.9209
rtibia 108.36
rfoot -33.1537 -17.9204
rtoes -13.2531
lfemur -75.084 11.6428 -17.8437
ltibia 107.509
lfoot -31.3195 16.182
ltoes -13.1732
